<svg width="1080" height="1440" viewBox="0 0 1080 1440" fill="none" xmlns="http://www.w3.org/2000/svg">
  <defs>
    <linearGradient id="bg" x1="0" y1="0" x2="1080" y2="1440" gradientUnits="userSpaceOnUse">
      <stop stop-color="#F8FAFC"/>
      <stop offset="1" stop-color="#EEF2FF"/>
    </linearGradient>
    <linearGradient id="phone" x1="240" y1="80" x2="840" y2="1360" gradientUnits="userSpaceOnUse">
      <stop stop-color="#0F172A"/>
      <stop offset="1" stop-color="#1E293B"/>
    </linearGradient>
    <linearGradient id="hero" x1="280" y1="180" x2="800" y2="560" gradientUnits="userSpaceOnUse">
      <stop stop-color="#334155"/>
      <stop offset="1" stop-color="#0F172A"/>
    </linearGradient>
    <linearGradient id="accent" x1="0" y1="0" x2="1" y2="1">
      <stop stop-color="#F97316"/>
      <stop offset="1" stop-color="#EA580C"/>
    </linearGradient>
    <filter id="shadow" x="200" y="60" width="680" height="1320" filterUnits="userSpaceOnUse" color-interpolation-filters="sRGB">
      <feDropShadow dx="0" dy="30" stdDeviation="30" flood-color="#0F172A" flood-opacity="0.26"/>
    </filter>
  </defs>

  <rect width="1080" height="1440" fill="url(#bg)"/>
  <circle cx="170" cy="180" r="140" fill="#DBEAFE"/>
  <circle cx="930" cy="1280" r="180" fill="#E0E7FF"/>

  <g filter="url(#shadow)">
    <rect x="240" y="80" width="600" height="1280" rx="72" fill="url(#phone)"/>
  </g>
  <rect x="280" y="140" width="520" height="1160" rx="52" fill="#F1F5F9"/>
  <rect x="470" y="104" width="140" height="14" rx="7" fill="#334155"/>

  <rect x="280" y="140" width="520" height="360" rx="52" fill="url(#hero)"/>
  <rect x="320" y="176" width="220" height="20" rx="10" fill="#E2E8F0" fill-opacity="0.85"/>
  <rect x="320" y="206" width="280" height="14" rx="7" fill="#CBD5E1" fill-opacity="0.75"/>
  <circle cx="540" cy="330" r="86" fill="#F8FAFC"/>
  <circle cx="540" cy="330" r="76" fill="#E2E8F0"/>
  <circle cx="540" cy="330" r="50" fill="#94A3B8"/>

  <rect x="320" y="530" width="220" height="16" rx="8" fill="#0F172A"/>
  <rect x="650" y="530" width="130" height="16" rx="8" fill="#F97316"/>

  <rect x="320" y="560" width="440" height="220" rx="36" fill="#FFFFFF"/>
  <rect x="340" y="586" width="400" height="120" rx="24" fill="#E2E8F0"/>
  <rect x="340" y="716" width="160" height="42" rx="21" fill="url(#accent)"/>
  <rect x="510" y="716" width="90" height="42" rx="21" fill="#1E293B"/>
  <rect x="610" y="716" width="130" height="42" rx="21" fill="#334155"/>

  <rect x="320" y="810" width="88" height="46" rx="23" fill="url(#accent)"/>
  <rect x="420" y="810" width="88" height="46" rx="23" fill="#E2E8F0"/>
  <rect x="520" y="810" width="88" height="46" rx="23" fill="#E2E8F0"/>
  <rect x="620" y="810" width="140" height="46" rx="23" fill="#E2E8F0"/>

  <rect x="320" y="886" width="440" height="62" rx="31" fill="#FFFFFF" stroke="#CBD5E1"/>
  <circle cx="356" cy="917" r="10" fill="#94A3B8"/>
  <rect x="378" y="909" width="180" height="16" rx="8" fill="#94A3B8"/>

  <rect x="320" y="974" width="440" height="96" rx="28" fill="#FFFFFF"/>
  <rect x="340" y="996" width="74" height="52" rx="14" fill="#DBEAFE"/>
  <rect x="426" y="998" width="220" height="14" rx="7" fill="#334155"/>
  <rect x="426" y="1020" width="180" height="10" rx="5" fill="#94A3B8"/>
  <rect x="426" y="1038" width="96" height="16" rx="8" fill="#F97316" fill-opacity="0.2"/>

  <rect x="320" y="1088" width="440" height="96" rx="28" fill="#FFFFFF"/>
  <rect x="340" y="1110" width="74" height="52" rx="14" fill="#E2E8F0"/>
  <rect x="426" y="1112" width="230" height="14" rx="7" fill="#334155"/>
  <rect x="426" y="1134" width="170" height="10" rx="5" fill="#94A3B8"/>
  <rect x="426" y="1152" width="126" height="16" rx="8" fill="#F97316" fill-opacity="0.2"/>
</svg>
