<svg width="1200" height="900" viewBox="0 0 1200 900" fill="none" xmlns="http://www.w3.org/2000/svg">
  <defs>
    <linearGradient id="bg" x1="0" y1="0" x2="1200" y2="900" gradientUnits="userSpaceOnUse">
      <stop stop-color="#EEF4FF"/>
      <stop offset="1" stop-color="#DDEBFF"/>
    </linearGradient>
    <linearGradient id="device" x1="340" y1="80" x2="860" y2="820" gradientUnits="userSpaceOnUse">
      <stop stop-color="#111827"/>
      <stop offset="1" stop-color="#1F2937"/>
    </linearGradient>
    <linearGradient id="screenTop" x1="390" y1="150" x2="810" y2="350" gradientUnits="userSpaceOnUse">
      <stop stop-color="#0B1324"/>
      <stop offset="1" stop-color="#162036"/>
    </linearGradient>
    <linearGradient id="primary" x1="0" y1="0" x2="1" y2="1">
      <stop stop-color="#2563EB"/>
      <stop offset="1" stop-color="#1D4ED8"/>
    </linearGradient>
    <filter id="shadow" x="300" y="70" width="600" height="780" filterUnits="userSpaceOnUse" color-interpolation-filters="sRGB">
      <feDropShadow dx="0" dy="24" stdDeviation="22" flood-color="#1E3A8A" flood-opacity="0.22"/>
    </filter>
    <filter id="soft" x="0" y="0" width="1200" height="900" filterUnits="userSpaceOnUse" color-interpolation-filters="sRGB">
      <feGaussianBlur stdDeviation="30"/>
    </filter>
  </defs>

  <rect width="1200" height="900" fill="url(#bg)"/>

  <g opacity="0.75" filter="url(#soft)">
    <circle cx="180" cy="170" r="120" fill="#93C5FD"/>
    <circle cx="1040" cy="760" r="160" fill="#60A5FA"/>
    <circle cx="1030" cy="180" r="100" fill="#BFDBFE"/>
  </g>

  <g filter="url(#shadow)">
    <rect x="340" y="80" width="520" height="740" rx="54" fill="url(#device)"/>
  </g>
  <rect x="390" y="130" width="420" height="640" rx="34" fill="#F8FAFC"/>
  <rect x="540" y="102" width="120" height="14" rx="7" fill="#374151"/>

  <rect x="390" y="130" width="420" height="220" rx="34" fill="url(#screenTop)"/>
  <rect x="420" y="164" width="170" height="16" rx="8" fill="#93C5FD" fill-opacity="0.85"/>
  <rect x="420" y="188" width="240" height="12" rx="6" fill="#BFDBFE" fill-opacity="0.7"/>
  <rect x="420" y="300" width="126" height="34" rx="17" fill="url(#primary)"/>
  <rect x="556" y="300" width="126" height="34" rx="17" fill="#1E293B"/>
  <rect x="692" y="300" width="88" height="34" rx="17" fill="#334155"/>

  <rect x="420" y="374" width="360" height="58" rx="18" fill="#FFFFFF"/>
  <rect x="438" y="395" width="200" height="16" rx="8" fill="#CBD5E1"/>
  <rect x="664" y="392" width="98" height="22" rx="11" fill="#DBEAFE"/>

  <rect x="420" y="452" width="360" height="94" rx="20" fill="#FFFFFF"/>
  <rect x="438" y="470" width="74" height="58" rx="14" fill="#DBEAFE"/>
  <rect x="526" y="472" width="170" height="14" rx="7" fill="#334155"/>
  <rect x="526" y="494" width="140" height="10" rx="5" fill="#94A3B8"/>
  <rect x="526" y="512" width="90" height="16" rx="8" fill="#2563EB" fill-opacity="0.18"/>
  <rect x="704" y="512" width="58" height="16" rx="8" fill="#1D4ED8" fill-opacity="0.18"/>

  <rect x="420" y="564" width="360" height="94" rx="20" fill="#FFFFFF"/>
  <rect x="438" y="582" width="74" height="58" rx="14" fill="#E2E8F0"/>
  <rect x="526" y="584" width="168" height="14" rx="7" fill="#334155"/>
  <rect x="526" y="606" width="150" height="10" rx="5" fill="#94A3B8"/>
  <rect x="526" y="624" width="106" height="16" rx="8" fill="#2563EB" fill-opacity="0.18"/>
  <rect x="640" y="624" width="72" height="16" rx="8" fill="#1D4ED8" fill-opacity="0.18"/>

  <rect x="420" y="676" width="360" height="72" rx="20" fill="#FFFFFF"/>
  <rect x="438" y="704" width="140" height="16" rx="8" fill="#0F172A"/>
  <rect x="622" y="698" width="140" height="28" rx="14" fill="url(#primary)"/>

  <g>
    <rect x="90" y="500" width="250" height="180" rx="26" fill="#FFFFFF"/>
    <rect x="118" y="536" width="116" height="14" rx="7" fill="#334155"/>
    <rect x="118" y="560" width="190" height="10" rx="5" fill="#94A3B8"/>
    <rect x="118" y="594" width="80" height="28" rx="14" fill="url(#primary)"/>
  </g>

  <g>
    <rect x="860" y="260" width="250" height="180" rx="26" fill="#FFFFFF"/>
    <rect x="888" y="296" width="136" height="14" rx="7" fill="#334155"/>
    <rect x="888" y="320" width="182" height="10" rx="5" fill="#94A3B8"/>
    <rect x="888" y="354" width="108" height="28" rx="14" fill="url(#primary)"/>
  </g>
</svg>
