<svg width="40" height="40" viewBox="0 0 40 40" fill="none" xmlns="http://www.w3.org/2000/svg">
<rect width="40" height="40" rx="12" fill="#0253CD"/>
<path d="M20 30C18.7833 29.85 17.575 29.5208 16.375 29.0125C15.175 28.5042 14.1042 27.775 13.1625 26.825C12.2208 25.875 11.4583 24.675 10.875 23.225C10.2917 21.775 10 20.0333 10 18V17H11C11.85 17 12.725 17.1083 13.625 17.325C14.525 17.5417 15.3667 17.8667 16.15 18.3C16.35 16.8667 16.8042 15.3958 17.5125 13.8875C18.2208 12.3792 19.05 11.0833 20 10C20.95 11.0833 21.7792 12.3792 22.4875 13.8875C23.1958 15.3958 23.65 16.8667 23.85 18.3C24.6333 17.8667 25.475 17.5417 26.375 17.325C27.275 17.1083 28.15 17 29 17H30V18C30 20.0333 29.7083 21.775 29.125 23.225C28.5417 24.675 27.7792 25.875 26.8375 26.825C25.8958 27.775 24.8292 28.5042 23.6375 29.0125C22.4458 29.5208 21.2333 29.85 20 30ZM19.95 27.95C19.7667 25.1833 18.9458 23.0917 17.4875 21.675C16.0292 20.2583 14.2167 19.3833 12.05 19.05C12.2333 21.9 13.0792 24.025 14.5875 25.425C16.0958 26.825 17.8833 27.6667 19.95 27.95ZM20 21.6C20.25 21.2333 20.5542 20.8542 20.9125 20.4625C21.2708 20.0708 21.6167 19.7333 21.95 19.45C21.9167 18.5 21.7292 17.5083 21.3875 16.475C21.0458 15.4417 20.5833 14.4333 20 13.45C19.4167 14.4333 18.9542 15.4417 18.6125 16.475C18.2708 17.5083 18.0833 18.5 18.05 19.45C18.3833 19.7333 18.7333 20.0708 19.1 20.4625C19.4667 20.8542 19.7667 21.2333 20 21.6ZM21.95 27.5C22.5667 27.3 23.2083 27.0083 23.875 26.625C24.5417 26.2417 25.1625 25.7208 25.7375 25.0625C26.3125 24.4042 26.8042 23.5833 27.2125 22.6C27.6208 21.6167 27.8667 20.4333 27.95 19.05C26.3833 19.2833 25.0083 19.8042 23.825 20.6125C22.6417 21.4208 21.7333 22.45 21.1 23.7C21.3 24.2333 21.4708 24.8167 21.6125 25.45C21.7542 26.0833 21.8667 26.7667 21.95 27.5Z" fill="white"/>
</svg>
